# xmcd
#
# Track frame offsets:
#	150
#	25426
#	67397
#	109137
#	196122
#
# Disc length: 3225 seconds
#
# Revision: 1
# Processed by: cddbd v1.5.2PL0 Copyright (c) Steve Scherf et al.
# Submitted via: audiograbber 1.83.01
#
DISCID=460c9705
DTITLE=Grateful Dead - 73-11-30 Boston Music Hall, Boston MA
DYEAR=1900
DGENRE=
TTITLE0=WRS Prelude > Part One
TTITLE1=Let It Grow
TTITLE2=Dark Star Jam
TTITLE3=Eyes Of The World
TTITLE4=Sugar Magnolia
EXTD=
EXTT0=
EXTT1=
EXTT2=
EXTT3=
EXTT4=
PLAYORDER=
